HIERARCHY
ROOT Hips
{
	OFFSET	0.000000	0.000000	0.000000
	CHANNELS 6 Xposition Yposition Zposition Zrotation Xrotation Yrotation
	JOINT LeftHip
	{
		OFFSET	4.740440	-3.195970	-0.322709
		CHANNELS 3 Zrotation Xrotation Yrotation
		JOINT LeftKnee
		{
			OFFSET	-1.605680	-15.592300	1.005510
			CHANNELS 3 Zrotation Xrotation Yrotation
			JOINT LeftAnkle
			{
				OFFSET	-0.632401	-16.421000	-1.413730
				CHANNELS 3 Zrotation Xrotation Yrotation
				End Site
				{
					OFFSET	0.008423	-2.933000	-1.776750
				}
			}
		}
	}
	JOINT RightHip
	{
		OFFSET	-4.740440	-3.195970	-0.322709
		CHANNELS 3 Zrotation Xrotation Yrotation
		JOINT RightKnee
		{
			OFFSET	1.605680	-15.592300	1.005510
			CHANNELS 3 Zrotation Xrotation Yrotation
			JOINT RightAnkle
			{
				OFFSET	0.632401	-16.421000	-1.413730
				CHANNELS 3 Zrotation Xrotation Yrotation
				End Site
				{
					OFFSET	-0.008423	-2.933000	-1.776750
				}
			}
		}
	}
	JOINT Chest
	{
		OFFSET	0.000000	3.468200	0.078401
		CHANNELS 3 Zrotation Xrotation Yrotation
		JOINT LeftCollar
		{
			OFFSET	3.857650	15.070700	-0.011583
			CHANNELS 3 Zrotation Xrotation Yrotation
			JOINT LeftShoulder
			{
				OFFSET	3.979720	-1.940530	-0.165223
				CHANNELS 3 Zrotation Xrotation Yrotation
				JOINT LeftElbow
				{
					OFFSET	0.615844	-10.986600	-0.673886
					CHANNELS 3 Zrotation Xrotation Yrotation
					JOINT LeftWrist
					{
						OFFSET	0.826843	-10.854500	1.034220
						CHANNELS 3 Zrotation Xrotation Yrotation
						End Site
						{
							OFFSET	-1.679080	-8.456540	0.936217
						}
					}
				}
			}
		}
		JOINT RightCollar
		{
			OFFSET	-3.857650	15.070700	-0.011583
			CHANNELS 3 Zrotation Xrotation Yrotation
			JOINT RightShoulder
			{
				OFFSET	-3.979720	-1.940530	-0.165223
				CHANNELS 3 Zrotation Xrotation Yrotation
				JOINT RightElbow
				{
					OFFSET	-0.615845	-10.986600	-0.673886
					CHANNELS 3 Zrotation Xrotation Yrotation
					JOINT RightWrist
					{
						OFFSET	-0.826843	-10.854500	1.034220
						CHANNELS 3 Zrotation Xrotation Yrotation
						End Site
						{
							OFFSET	1.679080	-8.456540	0.936217
						}
					}
				}
			}
		}
		JOINT Neck
		{
			OFFSET	0.000000	15.101400	0.055730
			CHANNELS 3 Zrotation Xrotation Yrotation
			JOINT Head
			{
				OFFSET	0.000000	4.185120	1.488260
				CHANNELS 3 Zrotation Xrotation Yrotation
				End Site
				{
					OFFSET	0.000000	7.773420	-0.106016
				}
			}
		}
	}
}
MOTION
Frames:     6
Frame Time: 0.016667
-4.800410	36.001114	9.182297	6.953300	-5.470657	24.079594	5.287315	11.292505	-9.228507	2.864796	21.139631	-12.413972	-3.433930	-24.408916	-3.704589	-16.181908	-21.140026	-11.675838	8.956606	30.294666	-6.743358	-1.936838	1.587469	2.303707	1.709142	20.395603	5.742154	-9.878326	-10.168273	3.470665	12.724627	-22.820654	9.502514	12.536096	-43.883930	19.066015	11.211784	-24.548403	33.823242	-13.630418	-20.648643	37.445454	-16.951181	-60.202789	-1.573722	3.243059	-36.621674	15.013489	14.501583	-28.624102	-23.504103	-7.188813	-26.808615	-11.388829	7.758268	5.449981	-20.059000	
-5.135633	35.995876	9.516866	7.111991	-4.770672	24.513313	5.724110	11.926172	-8.358765	2.982064	19.332363	-12.996849	-4.120082	-24.325006	-4.533015	-16.247965	-21.817621	-11.701766	9.534677	31.201035	-7.212467	-2.562560	0.839970	1.843547	1.084683	20.834616	5.558290	-10.335048	-8.351894	6.324735	11.220674	-20.980326	9.489504	18.088270	-50.721359	27.519157	12.540750	-23.181433	34.557983	-12.096215	-16.509331	39.653183	9.208975	-56.112747	13.719317	9.528964	-46.914413	17.329134	7.590793	-31.885502	-20.643572	-9.496118	-29.065594	-10.482271	10.207915	5.197524	-20.846167	
-5.231206	35.977867	9.597133	7.051730	-4.488375	25.108347	5.923856	11.892667	-8.689053	3.106652	18.983925	-12.989054	-4.372261	-24.462280	-4.792463	-16.464151	-22.044270	-12.223002	9.814517	31.606871	-7.409936	-2.748942	0.607378	1.668144	1.188480	21.028385	5.130560	-10.596496	-7.839136	7.139877	10.790810	-20.366835	9.886642	20.201881	-52.830139	30.357975	19.298761	-22.321503	38.762211	-12.002722	-15.231090	39.569946	14.606867	-54.236328	16.018148	14.632323	-48.632271	20.148788	3.717390	-34.469360	-22.783695	-10.349428	-29.985067	-10.056877	10.728603	5.020194	-20.984301	
-5.434243	35.918182	9.871222	6.930557	-4.372243	25.621668	6.219879	12.158161	-8.617264	3.745953	18.841509	-12.658094	-5.218738	-25.240040	-5.552513	-16.356976	-22.308996	-12.571216	10.426668	32.698921	-7.800558	-3.201603	-0.111995	1.389038	1.610342	22.489702	5.095577	-11.688619	-6.916232	9.242873	9.566347	-18.476099	11.652457	28.770338	-57.419811	39.202648	21.449476	-19.626911	39.638321	-12.075766	-11.635950	38.824165	22.592766	-45.556480	22.353636	26.633774	-53.679707	28.559008	-4.886459	-39.005085	-27.132702	-12.411812	-32.390766	-8.523167	11.111189	4.333077	-20.579231	
-5.468852	35.892902	9.951173	6.775796	-4.188735	25.799072	6.331712	11.970592	-8.565777	3.970776	19.014421	-12.598269	-5.501988	-25.546282	-5.779988	-16.361294	-22.514748	-12.916364	10.536505	33.011139	-7.788223	-3.287199	-0.395044	1.363250	1.768570	22.868689	4.977003	-11.984528	-6.821033	9.859673	9.307574	-17.857809	12.225096	32.395340	-58.101681	42.769493	29.413050	-16.885935	42.766659	-12.249770	-10.731461	38.404896	21.681269	-41.600079	22.606916	31.463837	-56.415302	33.807983	-6.063543	-39.102970	-25.150438	-12.814814	-33.126919	-8.050230	11.059795	4.265923	-20.191929	
-5.567539	35.803581	10.164877	6.600516	-3.924278	25.538893	6.354310	11.994078	-7.634845	4.714438	19.584070	-12.823422	-6.162032	-26.354725	-6.142689	-15.975498	-23.100153	-13.482969	10.138627	34.014248	-7.094213	-3.547536	-1.308946	1.338203	1.848734	24.540932	4.546285	-12.750437	-6.920158	11.837705	9.189037	-16.434649	14.106532	42.874741	-58.144451	54.956871	32.163284	-12.856123	44.701698	-13.072445	-9.529089	36.865459	19.166183	-39.935402	22.265938	39.820473	-55.251125	46.236992	-4.826133	-36.095184	-10.408480	-12.859533	-34.868896	-6.076368	10.839458	4.290573	-18.816608	
